<svg xmlns="http://www.w3.org/2000/svg" viewBox="0 0 48 48"><path d="M15.733 20.125c1.104 0 2-.896 2-2v-7.8C17.733 6.838 20.57 4 24.058 4c3.487 0 6.325 2.838 6.325 6.325v7.8c0 1.104.896 2 2 2s2-.896 2-2v-7.8C34.383 4.632 29.75 0 24.058 0c-5.692 0-10.324 4.632-10.324 10.325v7.8c0 1.104.895 2 2 2z"/><path d="M47 15.63H36.383v2.495c0 2.206-1.794 4-4 4-2.205 0-4-1.794-4-4V15.63h-8.65v2.495c0 2.206-1.793 4-4 4s-4-1.794-4-4V15.63H1c-.552 0-.893.436-.762.972L7.235 45.1C7.658 46.702 9.343 48 11 48h26c1.658 0 3.342-1.3 3.767-2.9l6.996-28.498c.13-.537-.21-.97-.763-.97z"/></svg>