<svg xmlns="http://www.w3.org/2000/svg" viewBox="0 0 512 512"><path d="M121.263 390.737c-11.144 0-20.21-9.065-20.21-20.21V87.578c0-33.433-27.2-60.633-60.633-60.633H0v40.42h40.42c11.145 0 20.212 9.067 20.212 20.212v282.946c0 33.434 27.2 60.632 60.632 60.632h336.842v-40.42H121.263zM154.947 431.158c-14.86 0-26.947 12.09-26.947 26.947s12.09 26.947 26.947 26.947 26.947-12.09 26.947-26.947-12.088-26.947-26.947-26.947zM384 431.158c-14.86 0-26.947 12.09-26.947 26.947s12.09 26.947 26.947 26.947c14.86 0 26.947-12.09 26.947-26.947S398.86 431.158 384 431.158z"/><path d="M141.474 114.526v87.58h343.158L512 114.525M141.474 242.526v87.58h303.158l27.37-87.58"/></svg>