<svg preserveAspectRatio="xMinYMin slice" xmlns="http://www.w3.org/2000/svg" viewBox="0 0 50.691 50.691"><path d="M11.503 34.554c-2.756 0-4.988 2.234-4.988 4.99s2.232 4.988 4.988 4.988c2.757 0 4.99-2.232 4.99-4.988s-2.233-4.99-4.99-4.99zm0 6.648c-.914 0-1.657-.742-1.657-1.656 0-.918.743-1.66 1.657-1.66.917 0 1.66.742 1.66 1.66 0 .914-.743 1.656-1.66 1.656zM39.523 34.554c-2.755 0-4.987 2.234-4.987 4.99s2.232 4.988 4.987 4.988c2.758 0 4.99-2.232 4.99-4.988s-2.232-4.99-4.99-4.99zm0 6.648c-.914 0-1.657-.742-1.657-1.656 0-.918.743-1.66 1.657-1.66.916 0 1.66.742 1.66 1.66 0 .914-.744 1.656-1.66 1.656z"/><path d="M49.694 33.944h-.344v-12.39c0-.564-.275-1.386-.616-1.835l-5.667-7.452c-.344-.448-1.077-.813-1.645-.813h-9.21V7.182c0-.566-.458-1.023-1.023-1.023H5.625c-2.26 0-4.092 1.83-4.092 4.09v23.694H1c-.552 0-1 .447-1 1v3.576c0 .563.458 1.022 1.022 1.022h3.492c0-3.854 3.135-6.987 6.988-6.987 3.854 0 6.99 3.135 6.99 6.987h14.043c0-3.854 3.135-6.987 6.988-6.987 3.853 0 6.987 3.135 6.987 6.987h3.157c.566 0 1.023-.46 1.023-1.022v-3.576c.004-.552-.443-1-.996-1zM34.81 21.3v-5.976h4.26c.537 0 1.233.35 1.558.78l3.808 5.196H34.81z"/></svg>