<svg preserveAspectRatio="xMinYMin slice" xmlns="http://www.w3.org/2000/svg" viewBox="0 0 45.973 45.972"><path d="M44.752 20.914L25.935 2.094c-.78-.78-1.842-1.22-2.946-1.22-1.106 0-2.167.44-2.948 1.22l-18.82 18.82C.03 22.104-.33 23.882.317 25.44c.646 1.556 2.165 2.556 3.85 2.556h2.404v13.46c0 2.014 1.607 3.643 3.62 3.643h3.204V32.93c0-.927.766-1.65 1.692-1.65h6.223c.927 0 1.674.724 1.674 1.65v12.168h12.8c2.012 0 3.61-1.63 3.61-3.642v-13.46h2.412c1.685 0 3.204-1 3.85-2.557.644-1.558.288-3.334-.904-4.526z"/></svg>