<svg enable-background="new 0 0 300 300" version="1.1" viewBox="0 0 300 300" xml:space="preserve" xmlns="http://www.w3.org/2000/svg"><path d="m38.52 0.012h222.98c21.184 0 38.502 17.324 38.502 38.508v222.98c0 21.178-17.318 38.49-38.502 38.49h-222.98c-21.184 0-38.52-17.313-38.52-38.49v-222.98c0-21.184 17.336-38.508 38.52-38.508zm180.03 33.317c-7.438 0-13.505 6.091-13.505 13.525v32.314c0 7.437 6.067 13.514 13.505 13.514h33.903c7.426 0 13.506-6.077 13.506-13.514v-32.314c0-7.434-6.08-13.525-13.506-13.525h-33.903zm47.538 93.539h-26.396c2.503 8.175 3.86 16.796 3.86 25.759 0 49.882-41.766 90.34-93.266 90.34-51.487 0-93.254-40.458-93.254-90.34 0-8.963 1.37-17.584 3.861-25.759h-27.539v126.73c0 6.563 5.359 11.902 11.916 11.902h208.91c6.563 0 11.911-5.339 11.911-11.902v-126.73zm-115.8-35.89c-33.26 0-60.24 26.128-60.24 58.388 0 32.227 26.98 58.375 60.24 58.375 33.278 0 60.259-26.148 60.259-58.375 0-32.261-26.981-58.388-60.259-58.388z"/></svg>