<svg preserveAspectRatio="xMinYMin slice" xmlns="http://www.w3.org/2000/svg" viewBox="0 0 460.427 460.427"><circle cx="225.108" cy="41.302" r="38.373"/><path d="M397.11 330.868c-7.376 0-14.457 1.28-21.046 3.61l-3.12-9.27c6.07-1.88 12.506-2.914 19.175-2.957 8.1-.05 15.105-6.152 15.608-14.238.55-8.84-6.458-16.18-15.18-16.18-10.212 0-20.058 1.595-29.308 4.54l-20.71-61.54h9.315c3.71 7.965 10.934 13.96 19.685 15.98 3.33.767 6.52-1.763 6.52-5.192v-45.936c0-3.406-3.164-5.96-6.484-5.2-8.767 2.01-16.007 8.013-19.72 15.988h-4.464c-2.762 3.55-6.192 6.54-10.09 8.794-9.936 5.744-18.37 4.656-24.252 4.314l11.57 34.383c-1.71 1.595 3.556-6.344-68.422 106.855h-.684c-2.564 8.595-6.26 15.55-14.333 21.473-1.467 1.078-3.016 2.04-4.622 2.89h19.837c8.186 0 15.805-4.184 20.2-11.09l57.85-90.93 6.586 19.566c-27.03 17.072-45.068 47.145-45.246 81.37-.043 8.292 6.38 15.424 14.668 15.71 8.646.3 15.75-6.62 15.75-15.2 0-20.938 9.757-39.63 24.952-51.8l3.515 10.444c-13.427 12.156-21.634 29.974-20.807 49.648 1.368 32.53 27.712 59.008 60.235 60.53 36.28 1.696 66.34-27.33 66.34-63.246 0-34.91-28.404-63.314-63.317-63.314zm0 86.074c-12.548 0-22.757-10.21-22.757-22.758s10.21-22.758 22.758-22.758 22.76 10.21 22.76 22.758c0 12.55-10.21 22.758-22.76 22.758z"/><path d="M269.437 259.727c3.117-10.448-2.336-21.534-12.515-25.44l-23.595-9.058 1.407-6.99c-7.085-2.4-12.47-8.33-14.186-15.587l-13.618-57.806 28.632 49.04c2.935 5.027 8.193 8.25 14.005 8.59l69.342 4.03c9.6.553 17.807-6.775 18.364-16.35.557-9.584-6.762-17.806-16.348-18.364l-60.037-3.49-23.934-40.988 13.567 12.518 1.624-8.065c2.827-14.035-6.26-27.703-20.294-30.53l-45.317-9.127c-14.035-2.825-27.703 6.26-30.53 20.295l-14.56 72.305v-69.587c0-4.846-3.93-8.775-8.776-8.775H32.603c-4.846 0-8.775 3.93-8.775 8.775v127.69h-6.084c-9.8 0-17.744 7.943-17.744 17.743 0 9.8 7.944 17.744 17.744 17.744h73.004v27.04c-29.827 11.282-52.235 37.664-57.884 69.824-1.275 7.26 4.317 13.92 11.7 13.92h15.524c-.135 1.683-.223 3.38-.223 5.098 0 34.912 28.403 63.316 63.316 63.316 34.913 0 63.317-28.403 63.317-63.316 0-1.686-.086-3.35-.216-5.004h15.02c-15.51-8.246-23.51-26.573-18.346-43.89l19.983-66.988h17.417l-21.406 71.76c-3.294 11.04 2.987 22.662 14.028 25.956 11.042 3.294 22.663-2.988 25.956-14.028l30.505-102.26zM123.18 416.942c-12.55 0-22.758-10.21-22.758-22.758 0-1.753.206-3.458.583-5.1h44.35c.377 1.64.583 3.346.583 5.1 0 12.55-10.21 22.758-22.758 22.758zm18.266-174.128v-17.198c2.926 6.698 7.462 12.62 13.223 17.198h-13.224z"/></svg>