<svg preserveAspectRatio="xMinYMin slice" xmlns="http://www.w3.org/2000/svg" viewBox="0 0 79.806 79.806"><path d="M68.114 59.444c4.18 0 8.508 3.29 9.646 7.297l1.642 5.795c1.134 4.008-1.36 7.29-5.525 7.27L5.992 79.77c-4.18 0-6.685-3.3-5.616-7.322l1.553-5.68c1.086-4.034 5.397-7.323 9.55-7.323h56.634zm9.802-7.746V3.182C77.916 1.422 76.492 0 74.73 0H5.07C3.32 0 1.89 1.42 1.89 3.182V51.7c0 1.744 1.43 3.18 3.18 3.18h69.667c1.755-.002 3.18-1.437 3.18-3.182zM8.246 6.358h63.312v42.16H8.245V6.358z"/></svg>