<svg preserveAspectRatio="xMinYMin slice" xmlns="http://www.w3.org/2000/svg" viewBox="0 0 612 612"><path d="M306.768 346.814h.13c4.616 0 9.177-1.34 12.867-3.777l1-.643c.22-.142.447-.27.676-.424l11.66-9.645L611.357 102.7c-.576-.794-1.557-1.338-2.602-1.338H3.233c-.75 0-1.448.272-2.003.73l291.125 239.953c3.67 3.038 8.904 4.77 14.413 4.77zM0 133.9v340.37l208.55-168.472L0 133.898zm403.668 173.04L612 474.357V135.03L403.668 306.94zm-66.237 54.645c-8.304 6.814-19.167 10.57-30.575 10.57-11.45 0-22.304-3.734-30.587-10.516l-47.765-39.395L0 506.805v.588c0 1.753 1.502 3.244 3.276 3.244h605.49c1.742 0 3.233-1.49 3.233-3.255v-.544L383.692 323.4l-46.262 38.185z"/></svg>