<svg preserveAspectRatio="xMinYMin slice" xmlns="http://www.w3.org/2000/svg" viewBox="0 0 16.877 16.877"><path d="M5.3 5.587l-3.896-3.9 1.51-1.51c.232-.233.608-.237.842-.007l3.036 3.04c.232.23.232.613-.003.847l-.666.664-.62.62c-.075.077-.144.16-.203.247zm3.207 6.35c-.638-.548-1.25-1.13-1.844-1.724C6.07 9.616 5.49 9.006 4.94 8.365c-.45-.52-.54-1.273-.304-1.907l-4-4c-.93.956-.812 3.33.208 5.414.438.902 1.006 1.716 1.593 2.49.586.768 1.23 1.494 1.906 2.176.68.68 1.4 1.327 2.17 1.913.775.59 1.59 1.154 2.487 1.59 2.088 1.02 4.462 1.132 5.418.2l-4-4c-.635.234-1.39.147-1.91-.302zm8.195 1.182l-3.036-3.038c-.233-.23-.615-.23-.848.003h-.002l-.667.666-.616.62c-.076.075-.16.142-.247.204l3.896 3.898c.504-.505 1.007-1.007 1.512-1.51.235-.233.24-.61.007-.843z"/></svg>